<mxfile host="app.diagrams.net" modified="2021-05-03T20:33:00.800Z" agent="5.0 (X11)" etag="XeBD8EL9oXfDAyyi_Zqk" version="14.6.9" type="github">
  <diagram name="Page-1" id="74b105a0-9070-1c63-61bc-23e55f88626e">
    <mxGraphModel dx="922" dy="1532" grid="1" gridSize="10" guides="1" tooltips="1" connect="1" arrows="1" fold="1" page="1" pageScale="1.5" pageWidth="1169" pageHeight="826" background="none" math="0" shadow="0">
      <root>
        <mxCell id="0" style=";html=1;" />
        <mxCell id="1" style=";html=1;" parent="0" />
        <mxCell id="10b056a9c633e61c-30" value="Hum Fan" style="text;strokeColor=none;fillColor=none;html=1;fontSize=24;fontStyle=1;verticalAlign=middle;align=center;" parent="1" vertex="1">
          <mxGeometry x="80" y="40" width="1590" height="40" as="geometry" />
        </mxCell>
        <mxCell id="WP_BdpMt97Twg3W0hQO3-4" value="" style="edgeStyle=orthogonalEdgeStyle;rounded=0;orthogonalLoop=1;jettySize=auto;html=1;" edge="1" parent="1" source="WP_BdpMt97Twg3W0hQO3-1" target="WP_BdpMt97Twg3W0hQO3-3">
          <mxGeometry relative="1" as="geometry" />
        </mxCell>
        <mxCell id="WP_BdpMt97Twg3W0hQO3-1" value="Boot" style="strokeWidth=2;html=1;shape=mxgraph.flowchart.start_1;whiteSpace=wrap;" vertex="1" parent="1">
          <mxGeometry x="100" y="250" width="100" height="60" as="geometry" />
        </mxCell>
        <mxCell id="WP_BdpMt97Twg3W0hQO3-6" value="" style="edgeStyle=orthogonalEdgeStyle;rounded=0;orthogonalLoop=1;jettySize=auto;html=1;" edge="1" parent="1" source="WP_BdpMt97Twg3W0hQO3-3" target="WP_BdpMt97Twg3W0hQO3-5">
          <mxGeometry relative="1" as="geometry" />
        </mxCell>
        <mxCell id="WP_BdpMt97Twg3W0hQO3-3" value="Connect WiFi" style="whiteSpace=wrap;html=1;strokeWidth=2;" vertex="1" parent="1">
          <mxGeometry x="270" y="250" width="120" height="60" as="geometry" />
        </mxCell>
        <mxCell id="WP_BdpMt97Twg3W0hQO3-8" value="" style="edgeStyle=orthogonalEdgeStyle;rounded=0;orthogonalLoop=1;jettySize=auto;html=1;" edge="1" parent="1" source="WP_BdpMt97Twg3W0hQO3-5" target="WP_BdpMt97Twg3W0hQO3-7">
          <mxGeometry relative="1" as="geometry" />
        </mxCell>
        <mxCell id="WP_BdpMt97Twg3W0hQO3-5" value="read SaveData" style="whiteSpace=wrap;html=1;strokeWidth=2;" vertex="1" parent="1">
          <mxGeometry x="470" y="250" width="120" height="60" as="geometry" />
        </mxCell>
        <mxCell id="WP_BdpMt97Twg3W0hQO3-10" value="" style="edgeStyle=orthogonalEdgeStyle;rounded=0;orthogonalLoop=1;jettySize=auto;html=1;" edge="1" parent="1" source="WP_BdpMt97Twg3W0hQO3-7" target="WP_BdpMt97Twg3W0hQO3-9">
          <mxGeometry relative="1" as="geometry" />
        </mxCell>
        <mxCell id="WP_BdpMt97Twg3W0hQO3-7" value="Init DHT22" style="whiteSpace=wrap;html=1;strokeWidth=2;" vertex="1" parent="1">
          <mxGeometry x="670" y="250" width="120" height="60" as="geometry" />
        </mxCell>
        <mxCell id="WP_BdpMt97Twg3W0hQO3-14" value="" style="edgeStyle=orthogonalEdgeStyle;rounded=0;orthogonalLoop=1;jettySize=auto;html=1;" edge="1" parent="1" source="WP_BdpMt97Twg3W0hQO3-9" target="WP_BdpMt97Twg3W0hQO3-13">
          <mxGeometry relative="1" as="geometry" />
        </mxCell>
        <mxCell id="WP_BdpMt97Twg3W0hQO3-9" value="Read DHT" style="whiteSpace=wrap;html=1;strokeWidth=2;" vertex="1" parent="1">
          <mxGeometry x="670" y="390" width="120" height="60" as="geometry" />
        </mxCell>
        <mxCell id="WP_BdpMt97Twg3W0hQO3-16" value="" style="edgeStyle=orthogonalEdgeStyle;rounded=0;orthogonalLoop=1;jettySize=auto;html=1;" edge="1" parent="1" source="WP_BdpMt97Twg3W0hQO3-13" target="WP_BdpMt97Twg3W0hQO3-15">
          <mxGeometry relative="1" as="geometry" />
        </mxCell>
        <mxCell id="WP_BdpMt97Twg3W0hQO3-13" value="Hum" style="rhombus;whiteSpace=wrap;html=1;strokeWidth=2;" vertex="1" parent="1">
          <mxGeometry x="690" y="520" width="80" height="80" as="geometry" />
        </mxCell>
        <mxCell id="WP_BdpMt97Twg3W0hQO3-15" value="Relay on" style="whiteSpace=wrap;html=1;strokeWidth=2;" vertex="1" parent="1">
          <mxGeometry x="830" y="530" width="120" height="60" as="geometry" />
        </mxCell>
      </root>
    </mxGraphModel>
  </diagram>
</mxfile>
